<svg xmlns="http://www.w3.org/2000/svg" width="35.013" height="35.013" viewBox="0 0 35.013 35.013"><defs><style>.a{fill:#d2b465;}</style></defs><path class="a" d="M31.749,1.928H8.406A5.835,5.835,0,0,0,2.571,7.764V31.1a5.835,5.835,0,0,0,5.835,5.836H20.077V21.623H15.7V17.246h4.377V13.964a5.471,5.471,0,0,1,5.471-5.471h5.471V12.87H25.548a1.094,1.094,0,0,0-1.094,1.094v3.282h6.018l-1.094,4.377H24.454V36.941h7.295A5.835,5.835,0,0,0,37.583,31.1V7.764a5.835,5.835,0,0,0-5.835-5.836Z" transform="translate(-2.571 -1.928)"/></svg>