<svg xmlns="http://www.w3.org/2000/svg" width="31.33" height="31.388" viewBox="0 0 31.33 31.388"><defs><style>.a{fill:none;stroke:#dcc78f;stroke-linecap:round;stroke-linejoin:round;stroke-width:3px;}</style></defs><path class="a" d="M31.5,24.251v4.273a2.849,2.849,0,0,1-3.105,2.849A28.188,28.188,0,0,1,16.1,27a27.775,27.775,0,0,1-8.546-8.546A28.188,28.188,0,0,1,3.179,6.105,2.849,2.849,0,0,1,6.014,3h4.273a2.849,2.849,0,0,1,2.849,2.45,18.288,18.288,0,0,0,1,4,2.849,2.849,0,0,1-.641,3.005l-1.809,1.809a22.79,22.79,0,0,0,8.546,8.546L22.038,21a2.849,2.849,0,0,1,3.005-.641,18.288,18.288,0,0,0,4,1,2.849,2.849,0,0,1,2.45,2.891Z" transform="translate(-1.667 -1.5)"/></svg>