<svg xmlns="http://www.w3.org/2000/svg" xmlns:xlink="http://www.w3.org/1999/xlink" width="127.01" height="86.391" viewBox="0 0 127.01 86.391">
  <defs>
    <style>
      .cls-1 {
        clip-path: url(#clip-path);
      }

      .cls-2 {
        fill: none;
        stroke: #060606;
        stroke-linecap: round;
        stroke-linejoin: round;
        stroke-miterlimit: 10;
        stroke-width: 2px;
      }
    </style>
    <clipPath id="clip-path">
      <path id="path4212" d="M0-682.665H74.3v74.3H0Z" transform="translate(0 682.665)"/>
    </clipPath>
  </defs>
  <g id="Group_235" data-name="Group 235" transform="translate(-1425 -2171.058)">
    <g id="g4206" transform="translate(1425 2171.058)">
      <g id="g4208" transform="translate(0 0)">
        <g id="g4210" class="cls-1">
          <g id="g4216" transform="translate(13.893 66.489)">
            <path id="path4218" class="cls-2" d="M-41.56-55.039h-2.125a2.951,2.951,0,0,1-2.95-2.951v-3.771h8.026v3.771A2.951,2.951,0,0,1-41.56-55.039Z" transform="translate(46.636 61.761)"/>
          </g>
          <g id="g4220" transform="translate(52.38 66.489)">
            <path id="path4222" class="cls-2" d="M-41.56-55.039h-2.125a2.951,2.951,0,0,1-2.95-2.951v-3.771h8.026v3.771A2.951,2.951,0,0,1-41.56-55.039Z" transform="translate(46.636 61.761)"/>
          </g>
          <g id="g4224" transform="translate(8.971 5.442)">
            <path id="path4226" class="cls-2" d="M-461.449-444.258v2.446a4.239,4.239,0,0,1-4.239,4.238h-47.879a4.239,4.239,0,0,1-4.239-4.238v-52.464a4.239,4.239,0,0,1,4.239-4.238h47.879a4.239,4.239,0,0,1,4.239,4.239v44.165" transform="translate(517.805 498.515)"/>
          </g>
          <g id="g4228" transform="translate(47.611 53.871)">
            <path id="path4230" class="cls-2" d="M-14.771-56.033a1.8,1.8,0,0,1-1.8-1.8,5.039,5.039,0,0,1,5.039-5.039h4.419a2.534,2.534,0,0,1,2.534,2.534v1.775a2.534,2.534,0,0,1-2.534,2.534Z" transform="translate(16.575 62.876)"/>
          </g>
          <g id="g4232" transform="translate(14.694 53.871)">
            <path id="path4234" class="cls-2" d="M-98.2-41.263h0a5.039,5.039,0,0,0-5.039-5.039h-4.419a2.534,2.534,0,0,0-2.534,2.534v1.775a2.534,2.534,0,0,0,2.534,2.534h7.655A1.8,1.8,0,0,0-98.2-41.263Z" transform="translate(110.194 46.303)"/>
          </g>
          <g id="g4236" transform="translate(19.913 1.088)">
            <path id="path4238" class="cls-2" d="M-282.275-35.646h-34.474A4.353,4.353,0,0,1-312.4-40h25.767A4.354,4.354,0,0,1-282.275-35.646Z" transform="translate(316.749 40)"/>
          </g>
          <g id="g4240" transform="translate(8.971 18.98)">
            <path id="path4242" class="cls-2" d="M-100.588,0h44.071V26.846l-7.4,1.449a101.16,101.16,0,0,1-41.56,0l-7.4-1.449V0h5.723" transform="translate(112.873)"/>
          </g>
          <g id="g4244" transform="translate(31.788 55.661)">
            <path id="path4246" class="cls-2" d="M0,0H10.722"/>
          </g>
          <g id="g4248" transform="translate(31.788 60.078)">
            <path id="path4250" class="cls-2" d="M0,0H10.722"/>
          </g>
          <g id="g4252" transform="translate(15.987 9.733)">
            <path id="path4254" class="cls-2" d="M-326.3-40.505H-363.68a2.473,2.473,0,0,1-2.473-2.473,2.473,2.473,0,0,1,2.473-2.473H-326.3a2.473,2.473,0,0,1,2.473,2.473A2.474,2.474,0,0,1-326.3-40.505Z" transform="translate(366.154 45.452)"/>
          </g>
          <g id="g4256" transform="translate(1.088 10.4)">
            <path id="path4258" class="cls-2" d="M-64.546,0l-4.079,1.5a5.811,5.811,0,0,0-3.8,5.453V22.478a2.092,2.092,0,0,0,2.092,2.092,2.092,2.092,0,0,0,2.092-2.092V7.062A1.792,1.792,0,0,1-67.072,5.38l2.526-.93Z" transform="translate(72.429)"/>
          </g>
          <g id="g4260" transform="translate(65.328 10.4)">
            <path id="path4262" class="cls-2" d="M0,0,4.079,1.5a5.811,5.811,0,0,1,3.8,5.453V22.478a2.092,2.092,0,0,1-4.184,0V7.062A1.792,1.792,0,0,0,2.526,5.38L0,4.45Z"/>
          </g>
          <g id="g4264" transform="translate(8.971 18.98)">
            <path id="path4266" class="cls-2" d="M-170.218,0l-20.788,20.788v6.058l4.73.927L-158.5,0Z" transform="translate(191.006)"/>
          </g>
          <g id="g4268" transform="translate(34.873 18.98)">
            <path id="path4270" class="cls-2" d="M-249.362,0h-.03l-30.424,30.424c2.639.064,5.268.016,7.922-.142L-249.362,7.75Z" transform="translate(279.817)"/>
          </g>
        </g>
      </g>
    </g>
    <g id="bus-stop" transform="translate(1493.736 2213.744)">
      <path id="Path_1657" data-name="Path 1657" d="M53.721,64H4.553A4.558,4.558,0,0,0,0,68.553a.911.911,0,0,0,.911.911H4.553v1.821a1.828,1.828,0,0,0-1.821,1.826v32.773H1.821a.911.911,0,0,0,0,1.821H9.105a.911.911,0,0,0,0-1.821H8.195v-1.821h18.21v2.732a.911.911,0,1,0,1.821,0v-2.732H44.615v2.732a.911.911,0,1,0,1.821,0v-2.732h3.642v1.821h-.911a.911.911,0,1,0,0,1.821h7.284a.911.911,0,0,0,0-1.821h-.911V73.111a1.828,1.828,0,0,0-1.821-1.826V69.463h3.642a.911.911,0,0,0,.911-.911A4.558,4.558,0,0,0,53.721,64ZM6.374,105.884H4.553l.005-32.779,1.816.005Zm38.242-3.642H28.226v-1.821H44.615Zm5.463,0H46.436v-1.821h.911a.911.911,0,0,0,0-1.821H25.495a.911.911,0,0,0,0,1.821h.911v1.821H8.195V92.226H50.079ZM8.195,90.405V74.016H28.226V90.405Zm41.884,0H30.047V74.016H50.079ZM51.9,71.284a1.826,1.826,0,0,0-1.572.91H7.946a1.826,1.826,0,0,0-1.572-.91V69.463H51.9Zm1.821,34.6H51.9l.005-32.779,1.816.005ZM1.978,67.642a2.736,2.736,0,0,1,2.575-1.821H53.721A2.736,2.736,0,0,1,56.3,67.642Z" transform="translate(0 -64)"/>
      <path id="Path_1658" data-name="Path 1658" d="M103.479,168H88.911a.911.911,0,0,0-.911.911v10.926a.911.911,0,0,0,.911.911h14.568a.911.911,0,0,0,.911-.911V168.911A.911.911,0,0,0,103.479,168Zm-.911,10.926H89.821v-9.105h12.747Z" transform="translate(-77.984 -156.163)"/>
      <path id="Path_1659" data-name="Path 1659" d="M120.911,201.821h1.821a.911.911,0,1,0,0-1.821h-1.821a.911.911,0,0,0,0,1.821Z" transform="translate(-106.342 -184.521)"/>
      <path id="Path_1660" data-name="Path 1660" d="M120.911,233.821h3.642a.91.91,0,1,0,0-1.821h-3.642a.91.91,0,1,0,0,1.821Z" transform="translate(-106.342 -212.879)"/>
      <path id="Path_1661" data-name="Path 1661" d="M184.911,233.821h.911a.91.91,0,1,0,0-1.821h-.911a.91.91,0,0,0,0,1.821Z" transform="translate(-163.058 -212.879)"/>
    </g>
  </g>
</svg>
