<svg xmlns="http://www.w3.org/2000/svg" width="107.574" height="89.257" viewBox="0 0 107.574 89.257">
  <g id="Group_234" data-name="Group 234" transform="translate(-1060 -2148)">
    <g id="popcorn" transform="translate(1060 2148)">
      <g id="Group_192" data-name="Group 192" transform="translate(0 13.077)">
        <g id="Group_191" data-name="Group 191" transform="translate(0)">
          <path id="Path_1634" data-name="Path 1634" d="M31.685,112.6a3.428,3.428,0,0,0-5.647-2.611,3.426,3.426,0,0,0-2.262,6.468,3.426,3.426,0,0,0,6.712-1.256A3.433,3.433,0,0,0,31.685,112.6Zm-2.63,1.421-.631.355.213.692a1.63,1.63,0,1,1-3.182.6l-.052-.719-.713-.105a1.63,1.63,0,1,1,1.087-3l.692.422.491-.646a1.629,1.629,0,1,1,2.095,2.406Z" transform="translate(-21.504 -109.171)"/>
        </g>
      </g>
      <g id="Group_194" data-name="Group 194" transform="translate(9.81 1.857)">
        <g id="Group_193" data-name="Group 193">
          <path id="Path_1635" data-name="Path 1635" d="M113.359,18.653a3.155,3.155,0,0,0-5.156-2.438,3.153,3.153,0,0,0-4.1,3.323,3.153,3.153,0,0,0,4.006,4.72,3.154,3.154,0,0,0,4.2-2.974q0-.136-.011-.27A3.159,3.159,0,0,0,113.359,18.653Zm-2.49,1.184-.632.355.213.692a1.357,1.357,0,0,1-1.981,1.572l-.549-.321-.485.411a1.339,1.339,0,0,1-.876.321,1.356,1.356,0,0,1-.9-2.372l.42-.372-.15-.541a1.357,1.357,0,0,1,2.012-1.524l.692.422.491-.646a1.357,1.357,0,1,1,1.744,2Z" transform="translate(-103.406 -15.499)"/>
        </g>
      </g>
      <g id="Group_196" data-name="Group 196" transform="translate(46.224 8.505)">
        <g id="Group_195" data-name="Group 195">
          <path id="Path_1636" data-name="Path 1636" d="M417.355,74.158a5.015,5.015,0,0,0-9.277.564,3.124,3.124,0,0,0,.017.321,4.2,4.2,0,0,0,8.208,1.746c0-.09,0-.181-.011-.27A3.158,3.158,0,0,0,417.355,74.158Zm-2.491,1.184-.632.355.213.692a1.357,1.357,0,0,1-1.981,1.572l-.549-.321-.485.411a1.339,1.339,0,0,1-.876.321,1.356,1.356,0,0,1-.9-2.372l.42-.372-.15-.54a1.357,1.357,0,0,1,2.012-1.525l.693.423.491-.646a1.357,1.357,0,1,1,1.745,2Z" transform="translate(-407.402 -71.004)"/>
        </g>
      </g>
      <g id="Group_198" data-name="Group 198" transform="translate(37.255 0)">
        <g id="Group_197" data-name="Group 197" transform="translate(0 0)">
          <path id="Path_1637" data-name="Path 1637" d="M341.891,3.9a3.4,3.4,0,0,0-1.923-1.378,3.426,3.426,0,0,0-6.622,1.764,3.441,3.441,0,0,0-.227,4.147,3.4,3.4,0,0,0,2.192,1.44,3.463,3.463,0,0,0,.65.062,3.436,3.436,0,0,0,2.2-.8,3.433,3.433,0,0,0,2.825-.472h0A3.43,3.43,0,0,0,341.891,3.9Zm-1.233,2.231a1.619,1.619,0,0,1-.685,1.042h0a1.633,1.633,0,0,1-1.644.11l-.649-.323-.453.565a1.635,1.635,0,0,1-.357.33,1.629,1.629,0,0,1-1.927-2.625l.566-.447-.314-.649a1.637,1.637,0,0,1,.553-2.055,1.619,1.619,0,0,1,.913-.282,1.648,1.648,0,0,1,.309.029,1.631,1.631,0,0,1,1.322,1.518l.04.81.81.043a1.629,1.629,0,0,1,1.517,1.933Z" transform="translate(-332.532 0)"/>
        </g>
      </g>
      <g id="Group_200" data-name="Group 200" transform="translate(8.407 7.786)">
        <g id="Group_199" data-name="Group 199" transform="translate(0)">
          <path id="Path_1638" data-name="Path 1638" d="M130.117,82.46a3.165,3.165,0,0,0-.323-1.389,3.157,3.157,0,0,0-2.208-4.485,3.153,3.153,0,0,0-4.255-4.087,4.138,4.138,0,0,0-3.674-1.064,3.144,3.144,0,0,0-.832-.594,3.427,3.427,0,0,0-4.657-5.019,3.434,3.434,0,0,0-2.971.367,3.426,3.426,0,0,0-5.707,3.182,3.161,3.161,0,0,0-2.553,2.715,3.727,3.727,0,0,0-3.227.587,3.155,3.155,0,0,0-4.115,3.32,3.162,3.162,0,0,0-.34,3.427A3.426,3.426,0,0,0,92.9,85.126a5.42,5.42,0,0,0-1.194,3.849l4.887,29.573H124.71l4.878-29.5.009-.074a5.418,5.418,0,0,0-.644-3.029,3.461,3.461,0,0,0,.111-.856q0-.135-.011-.269A3.158,3.158,0,0,0,130.117,82.46Zm-32,34.29h0L93.5,88.793a3.607,3.607,0,0,1,3.6-3.865h.038a3.6,3.6,0,0,1,3.6,3.468v.018l.008.109q0,.11,0,.22l2.224,28.007Zm6.656,0-2.234-28.289a3.607,3.607,0,0,1,3.606-3.532,3.611,3.611,0,0,1,3.607,3.607V116.75Zm6.776,0h0V88.535a3.607,3.607,0,0,1,6.206-2.5,3.572,3.572,0,0,1,1.007,2.426L116.53,116.75ZM127.81,88.793l-4.623,27.957h-4.853l2.222-27.97,0-.037q0-.111,0-.221l.007-.09,0-.036a3.6,3.6,0,0,1,3.6-3.468h.037a3.607,3.607,0,0,1,3.6,3.865Zm-.183-5.15-.552.31a5.416,5.416,0,0,0-2.862-.822h-.037a5.387,5.387,0,0,0-4.511,2.418,5.489,5.489,0,0,0-.612-.761,5.4,5.4,0,0,0-8.4.766,5.4,5.4,0,0,0-8.4-.766,5.482,5.482,0,0,0-.612.761,5.387,5.387,0,0,0-4.511-2.418h-.037a5.417,5.417,0,0,0-2.84.808A1.63,1.63,0,0,1,96.3,81.446l.692.421.491-.645a1.646,1.646,0,0,1,.39-.368l1.533-1.038-1.765-.562a1.356,1.356,0,0,1-.486-2.307l.42-.373-.151-.541a1.358,1.358,0,0,1,2.012-1.524l.693.423.491-.646a1.6,1.6,0,0,1,1.158-.541,2.4,2.4,0,0,1,1.726.688,2.754,2.754,0,0,0,.3.224l.7.423.483-.649.44-.579L105,73.307a1.343,1.343,0,0,1-.289-.836,1.359,1.359,0,0,1,1.342-1.357l.506.029.289-.376a1.618,1.618,0,0,1,.277-.284l.565-.447-.314-.649a1.63,1.63,0,0,1,2.816-1.624,1.524,1.524,0,0,1,.089.15l.641,1.228.86-1.086a1.63,1.63,0,0,1,2.126-.384l.691.421.49-.644a1.63,1.63,0,1,1,2.1,2.4l-.63.354.21.691a1.666,1.666,0,0,1,.072.465c0,.024,0,.048,0,.073v.786l.78.1a1.354,1.354,0,0,1,.962.616l.393.615.682-.258a2.336,2.336,0,0,1,2.762.887l.582.869.771-.707a1.357,1.357,0,1,1,1.582,2.182l-.635.357.218.7a1.231,1.231,0,0,1,.046.226l.155,1.334,1.174-.652a1.357,1.357,0,0,1,1.723,2.025l-.436.555.436.554a1.337,1.337,0,0,1,.288.835A1.362,1.362,0,0,1,127.626,83.643Z" transform="translate(-91.69 -65.005)"/>
        </g>
      </g>
      <g id="Group_202" data-name="Group 202" transform="translate(20.722 16.111)">
        <g id="Group_201" data-name="Group 201">
          <path id="Path_1639" data-name="Path 1639" d="M204.2,135.461a2.624,2.624,0,0,0-.775.116,3.354,3.354,0,0,0-5.737,1.565,3.358,3.358,0,0,0-3.191,3.35h1.8a1.552,1.552,0,0,1,1.985-1.5l1.289.369-.15-1.333a1.549,1.549,0,0,1,1.546-1.733,1.554,1.554,0,0,1,1.38.838l.5.949.848-.653a.83.83,0,0,1,.51-.175.839.839,0,0,1,.838.838h1.8A2.638,2.638,0,0,0,204.2,135.461Z" transform="translate(-194.501 -134.503)"/>
        </g>
      </g>
      <g id="Group_204" data-name="Group 204" transform="translate(30.065 20.363)">
        <g id="Group_203" data-name="Group 203">
          <path id="Path_1640" data-name="Path 1640" d="M278.849,170a3.125,3.125,0,0,0-2.29,1.008A3.055,3.055,0,0,0,272.5,173.9h1.8a1.259,1.259,0,0,1,1.258-1.258,1.244,1.244,0,0,1,.752.253l.881.661.471-1a1.316,1.316,0,0,1,2.508.561h1.8A3.118,3.118,0,0,0,278.849,170Z" transform="translate(-272.501 -170.003)"/>
        </g>
      </g>
      <g id="Group_206" data-name="Group 206" transform="translate(12.014 31.15)">
        <g id="Group_205" data-name="Group 205" transform="translate(0 0)">
          <rect id="Rectangle_229" data-name="Rectangle 229" width="1.797" height="7.07" transform="translate(0 0.293) rotate(-9.393)"/>
        </g>
      </g>
      <g id="Group_208" data-name="Group 208" transform="translate(14.851 48.307)">
        <g id="Group_207" data-name="Group 207" transform="translate(0 0)">
          <rect id="Rectangle_230" data-name="Rectangle 230" width="1.797" height="4.412" transform="matrix(0.987, -0.163, 0.163, 0.987, 0, 0.293)"/>
        </g>
      </g>
      <g id="Group_210" data-name="Group 210" transform="translate(30.07 51.85)">
        <g id="Group_209" data-name="Group 209" transform="translate(0 0)">
          <rect id="Rectangle_231" data-name="Rectangle 231" width="2.338" height="1.797" transform="translate(0 2.331) rotate(-85.458)"/>
        </g>
      </g>
      <g id="Group_212" data-name="Group 212" transform="translate(30.816 37.955)">
        <g id="Group_211" data-name="Group 211" transform="translate(0 0)">
          <rect id="Rectangle_232" data-name="Rectangle 232" width="6.849" height="1.797" transform="translate(0 6.828) rotate(-85.458)"/>
        </g>
      </g>
      <g id="Group_214" data-name="Group 214" transform="translate(31.576 31.23)">
        <g id="Group_213" data-name="Group 213" transform="translate(0 0)">
          <rect id="Rectangle_233" data-name="Rectangle 233" width="3.984" height="1.797" transform="translate(0 3.972) rotate(-85.458)"/>
        </g>
      </g>
    </g>
    <g id="fine-art" transform="translate(1107.214 2181.402)">
      <g id="Group_231" data-name="Group 231" transform="translate(0 0)">
        <g id="Group_215" data-name="Group 215" transform="translate(0 32.455)">
          <path id="Path_1641" data-name="Path 1641" d="M44,264.962H7.231a3.031,3.031,0,0,1,0-6.062H43.983A3.031,3.031,0,0,1,44,264.962Zm-36.766-4.7a1.666,1.666,0,0,0,0,3.331H43.983a1.666,1.666,0,1,0,0-3.331Z" transform="translate(-4.2 -258.9)"/>
        </g>
        <g id="Group_220" data-name="Group 220" transform="translate(6.88 37.151)">
          <g id="Group_216" data-name="Group 216">
            <path id="Path_1642" data-name="Path 1642" d="M57.341,311.717a2.542,2.542,0,0,1-.71-.1,2.753,2.753,0,0,1-1.939-3.372l3.864-14.444a.684.684,0,0,1,.655-.505h4.273a.673.673,0,0,1,.546.273.658.658,0,0,1,.123.587l-4.164,15.509a2.8,2.8,0,0,1-2.649,2.048Zm2.389-17.052L56,308.6a1.417,1.417,0,0,0,.137,1.051,1.353,1.353,0,0,0,.846.642,1.417,1.417,0,0,0,1.051-.137,1.4,1.4,0,0,0,.642-.833l3.932-14.663Z" transform="translate(-54.596 -293.3)"/>
          </g>
          <g id="Group_217" data-name="Group 217" transform="translate(19.514 0)">
            <path id="Path_1643" data-name="Path 1643" d="M204.351,311.7a2.738,2.738,0,0,1-2.649-2.034l-4.15-15.509a.65.65,0,0,1,.123-.587.713.713,0,0,1,.546-.273h4.273a.672.672,0,0,1,.655.505l3.877,14.458a2.737,2.737,0,0,1-1.939,3.359A3.687,3.687,0,0,1,204.351,311.7Zm-5.27-17.038,3.932,14.663a1.384,1.384,0,1,0,2.676-.71l-3.741-13.939Z" transform="translate(-197.529 -293.3)"/>
          </g>
          <g id="Group_218" data-name="Group 218" transform="translate(11.796)">
            <path id="Path_1644" data-name="Path 1644" d="M143.744,312A2.744,2.744,0,0,1,141,309.26V293.983a.676.676,0,0,1,.683-.683h4.137a.676.676,0,0,1,.683.683V309.26A2.774,2.774,0,0,1,143.744,312Zm-1.393-17.339V309.26a1.379,1.379,0,1,0,2.758,0V294.665Z" transform="translate(-141 -293.3)"/>
          </g>
          <g id="Group_219" data-name="Group 219" transform="translate(5.82 4.792)">
            <path id="Path_1645" data-name="Path 1645" d="M113.838,333.9h-5.83a.676.676,0,0,1-.683-.683v-4.137a.676.676,0,0,1,.683-.683h4.86a.672.672,0,0,1,.655.505l1.106,4.137a.658.658,0,0,1-.109.573.715.715,0,0,1-.505.287Zm-5.147-1.365h4.4l-.737-2.771h-3.659Zm-4.819,1.365H97.864a.694.694,0,0,1-.614-.86l1.106-4.137a.684.684,0,0,1,.655-.505h4.86a.676.676,0,0,1,.683.683v4.137A.676.676,0,0,1,103.871,333.9Zm-5.079-1.365h4.4v-2.771H99.53Z" transform="translate(-97.226 -328.4)"/>
          </g>
        </g>
        <g id="Group_221" data-name="Group 221" transform="translate(3.072 10.761)">
          <path id="Path_1646" data-name="Path 1646" d="M62.7,123.059a.676.676,0,0,1-.683-.683v-6.908a.683.683,0,0,1,1.365,0v6.908A.685.685,0,0,1,62.7,123.059Zm-35.319,0a.676.676,0,0,1-.683-.683V100.683a.683.683,0,1,1,1.365,0v21.694A.676.676,0,0,1,27.383,123.059ZM62.7,108.587a.676.676,0,0,1-.683-.683v-7.222a.683.683,0,1,1,1.365,0V107.9A.685.685,0,0,1,62.7,108.587Z" transform="translate(-26.7 -100)"/>
        </g>
        <g id="Group_222" data-name="Group 222" transform="translate(0 6.065)">
          <path id="Path_1647" data-name="Path 1647" d="M44,71.662H7.231a3.031,3.031,0,0,1,0-6.062H43.983A3.031,3.031,0,0,1,44,71.662ZM7.231,66.979a1.659,1.659,0,1,0,0,3.318H43.983a1.666,1.666,0,1,0,0-3.331H7.231Z" transform="translate(-4.2 -65.6)"/>
        </g>
        <g id="Group_225" data-name="Group 225" transform="translate(10.391 18.853)">
          <g id="Group_223" data-name="Group 223" transform="translate(7.576 2.024)">
            <path id="Path_1648" data-name="Path 1648" d="M149.6,187.036a.674.674,0,0,1-.614-.382l-5.065-10.5-6.854,10.581a.682.682,0,0,1-1.147-.737l7.522-11.591a.682.682,0,0,1,1.188.068l5.6,11.591a.683.683,0,0,1-.314.915.95.95,0,0,1-.314.055Z" transform="translate(-135.807 -174.092)"/>
          </g>
          <g id="Group_224" data-name="Group 224">
            <path id="Path_1649" data-name="Path 1649" d="M80.994,174.237a.554.554,0,0,1-.287-.068.673.673,0,0,1-.328-.9l6.389-13.6a.711.711,0,0,1,.546-.4.663.663,0,0,1,.614.273l5.338,7.168a.683.683,0,1,1-1.092.819l-4.655-6.253-5.9,12.574A.694.694,0,0,1,80.994,174.237Z" transform="translate(-80.313 -159.27)"/>
          </g>
        </g>
        <g id="Group_226" data-name="Group 226" transform="translate(39.263 0)">
          <path id="Path_1650" data-name="Path 1650" d="M294.41,42.26a2.652,2.652,0,0,1-.328-.027.7.7,0,0,1-.587-.765.689.689,0,0,1,.765-.587c1.365.191,3.618-2.225,6.212-5.01,1-1.065,2.034-2.171,3.167-3.318a63.654,63.654,0,0,0,5.857-6.635,10.849,10.849,0,0,0,1.966-3.345,11.194,11.194,0,0,0-3.345,1.966,63.653,63.653,0,0,0-6.635,5.857c-1.147,1.147-2.253,2.171-3.318,3.167-2.84,2.649-5.284,4.942-4.983,6.294a.667.667,0,0,1-.519.805.7.7,0,0,1-.819-.519c-.464-2.116,1.993-4.41,5.393-7.591,1.065-1,2.157-2.021,3.277-3.14a66.682,66.682,0,0,1,7.277-6.294c2.594-1.87,4.027-2.348,4.765-1.611s.259,2.171-1.611,4.765a63.163,63.163,0,0,1-6.321,7.263c-1.12,1.119-2.143,2.225-3.14,3.277C298.547,39.953,296.39,42.26,294.41,42.26Z" transform="translate(-291.787 -21.178)"/>
        </g>
        <g id="Group_227" data-name="Group 227" transform="translate(41.763 13.857)">
          <path id="Path_1651" data-name="Path 1651" d="M314.155,127.416a.64.64,0,0,1-.478-.2l-3.372-3.372a.676.676,0,0,1,0-.969.7.7,0,0,1,.969,0l3.372,3.372a.676.676,0,0,1,0,.969A.717.717,0,0,1,314.155,127.416Z" transform="translate(-310.1 -122.675)"/>
        </g>
        <g id="Group_228" data-name="Group 228" transform="translate(43.756 11.918)">
          <path id="Path_1652" data-name="Path 1652" d="M328.7,113.161a.64.64,0,0,1-.478-.2l-3.318-3.318a.676.676,0,0,1,0-.969.7.7,0,0,1,.969,0l3.318,3.318a.676.676,0,0,1,0,.969A.742.742,0,0,1,328.7,113.161Z" transform="translate(-324.7 -108.475)"/>
        </g>
        <g id="Group_229" data-name="Group 229" transform="translate(30.84 17.967)">
          <path id="Path_1653" data-name="Path 1653" d="M234.013,162.858a7.575,7.575,0,0,1-3.563-.833.674.674,0,0,1-.355-.614.688.688,0,0,1,.382-.6c1.338-.669,1.693-2.171,2.034-3.618.068-.3.137-.6.218-.887.546-2.034,2.048-3.195,4.464-3.481,2.539-.287,4.232.846,4.642,3.126a5.218,5.218,0,0,1-2.376,5.174A9.423,9.423,0,0,1,234.013,162.858Zm-1.843-1.6a7.915,7.915,0,0,0,6.471-1.229,3.947,3.947,0,0,0,1.843-3.836c-.273-1.556-1.3-2.212-3.14-2.007s-2.908,1-3.3,2.485c-.068.273-.137.546-.2.846A7.631,7.631,0,0,1,232.17,161.261Z" transform="translate(-230.094 -152.78)"/>
        </g>
        <g id="Group_230" data-name="Group 230" transform="translate(37.18 22.364)">
          <path id="Path_1654" data-name="Path 1654" d="M277.222,188.6a.689.689,0,0,1-.614-.382.666.666,0,0,1,.3-.915,4.188,4.188,0,0,0,1.98-1.9.685.685,0,0,1,1.256.546,5.616,5.616,0,0,1-2.608,2.58A.932.932,0,0,1,277.222,188.6Z" transform="translate(-276.529 -184.991)"/>
        </g>
      </g>
      <g id="Group_232" data-name="Group 232" transform="translate(6.062 13.478)">
        <path id="Path_1655" data-name="Path 1655" d="M52.013,126.726a3.413,3.413,0,1,1,3.413-3.413A3.414,3.414,0,0,1,52.013,126.726Zm0-5.461a2.048,2.048,0,1,0,2.048,2.048A2.045,2.045,0,0,0,52.013,121.265Z" transform="translate(-48.6 -119.9)"/>
      </g>
      <g id="Group_233" data-name="Group 233" transform="translate(3.836 54.49)">
        <path id="Path_1656" data-name="Path 1656" d="M84.316,421.665H32.983a.683.683,0,0,1,0-1.365H84.316a.676.676,0,0,1,.683.683A.685.685,0,0,1,84.316,421.665Z" transform="translate(-32.3 -420.3)"/>
      </g>
    </g>
  </g>
</svg>
