<svg xmlns="http://www.w3.org/2000/svg" width="106.024" height="94.331" viewBox="0 0 106.024 94.331">
  <g id="Group_189" data-name="Group 189" transform="translate(-10205.165 -2152.788)">
    <path id="suitcase_1_" data-name="suitcase (1)" d="M54.4,8.59H42V4.772A4.778,4.778,0,0,0,37.223,0H20.043a4.778,4.778,0,0,0-4.772,4.772V8.59H2.863A2.863,2.863,0,0,0,0,11.453V32.7a2.876,2.876,0,0,0,1.909,2.695V48.676A2.863,2.863,0,0,0,4.772,51.54H52.494a2.863,2.863,0,0,0,2.863-2.863V35.394a2.877,2.877,0,0,0,1.909-2.7V11.453A2.863,2.863,0,0,0,54.4,8.59ZM17.18,4.772a2.863,2.863,0,0,1,2.863-2.863h17.18a2.863,2.863,0,0,1,2.863,2.863V8.59H38.177V4.772a.954.954,0,0,0-.954-.954H20.043a.954.954,0,0,0-.954.954V8.59H17.18ZM36.269,8.59H21V5.727H36.269Zm17.18,40.086a.954.954,0,0,1-.954.954H4.772a.954.954,0,0,1-.954-.954V35.721l21,2.9v2.423A2.863,2.863,0,0,0,27.679,43.9h1.909a2.863,2.863,0,0,0,2.863-2.863V38.617l21-2.9ZM30.542,41.041a.954.954,0,0,1-.954.954H27.679a.954.954,0,0,1-.954-.954V35.314a.954.954,0,0,1,.954-.954h1.909a.954.954,0,0,1,.954.954ZM55.357,32.7a.954.954,0,0,1-.821.946l-.265.036L32.451,36.69V35.314a2.863,2.863,0,0,0-2.863-2.863H27.679a2.863,2.863,0,0,0-2.863,2.863V36.69L2.731,33.645a.955.955,0,0,1-.822-.946V11.453a.954.954,0,0,1,.954-.954H54.4a.954.954,0,0,1,.954.954Zm0,0" transform="translate(10253.923 2195.579)"/>
    <g id="mortarboard" transform="translate(10205.165 2152.788)">
      <path id="Path_1632" data-name="Path 1632" d="M74.444,60.254,43.04,46.794a11.084,11.084,0,0,0-8.694,0L2.949,60.253a4.864,4.864,0,0,0,0,8.941l3.711,1.591a1.162,1.162,0,0,0-.006.116V88.464A3.625,3.625,0,0,0,5.1,94.315a3.855,3.855,0,0,0-1.14,2.414l-.889,9.782a2.394,2.394,0,0,0,2.384,2.61h4.707a2.394,2.394,0,0,0,2.384-2.61l-.889-9.782a3.855,3.855,0,0,0-1.14-2.414,3.625,3.625,0,0,0-1.55-5.851V71.775l6.337,2.716a1.159,1.159,0,0,0-.006.116V83.45c0,3.691,2.527,7.1,7.116,9.614a34.579,34.579,0,0,0,16.279,3.7,34.579,34.579,0,0,0,16.279-3.7c4.589-2.509,7.116-5.923,7.116-9.614V74.607a1.152,1.152,0,0,0-.006-.116l12.358-5.3a4.864,4.864,0,0,0,0-8.941ZM10.221,106.779a.072.072,0,0,1-.057.025H5.457a.077.077,0,0,1-.077-.084l.889-9.781a1.547,1.547,0,0,1,3.082,0l.889,9.781A.072.072,0,0,1,10.221,106.779ZM7.811,93.215A1.313,1.313,0,1,1,9.124,91.9,1.314,1.314,0,0,1,7.811,93.215ZM59.774,78.508c0,2.995-2.465,5.919-6.763,8.022a1.158,1.158,0,1,0,1.018,2.08,17.624,17.624,0,0,0,5.655-4.168c-.434,2.442-2.462,4.752-5.822,6.589A32.245,32.245,0,0,1,38.7,94.451a32.245,32.245,0,0,1-15.168-3.419c-3.347-1.83-5.373-4.13-5.817-6.562a16.916,16.916,0,0,0,4.706,3.653,34.579,34.579,0,0,0,16.279,3.7,41.466,41.466,0,0,0,5.084-.31,1.158,1.158,0,0,0-.285-2.3,39.121,39.121,0,0,1-4.8.292A32.245,32.245,0,0,1,23.527,86.09c-3.811-2.084-5.911-4.776-5.911-7.581V75.481l16.735,7.172a11.084,11.084,0,0,0,8.694,0l16.729-7.17v3.027ZM73.53,67.066l-31.4,13.456a8.757,8.757,0,0,1-6.869,0l-24-10.284,21.987-3.824c.989,1.17,3,1.937,5.441,1.937,3.477,0,6.1-1.56,6.1-3.629s-2.622-3.629-6.1-3.629c-3.158,0-5.611,1.287-6.034,3.073L7.612,68.524a1.158,1.158,0,0,0-.211.058L3.86,67.064a2.547,2.547,0,0,1,0-4.683l31.4-13.456a8.758,8.758,0,0,1,6.869,0l31.4,13.459a2.547,2.547,0,0,1,0,4.683ZM34.912,64.724c0-.337,1.3-1.313,3.783-1.313s3.783.975,3.783,1.313-1.3,1.313-3.783,1.313S34.912,65.061,34.912,64.724Z" transform="translate(0 -45.908)"/>
      <path id="Path_1633" data-name="Path 1633" d="M300.236,320.711a1.164,1.164,0,0,0,.262-.03c.874-.2,1.735-.436,2.559-.7a1.158,1.158,0,0,0-.7-2.209c-.766.242-1.567.461-2.382.649a1.158,1.158,0,0,0,.26,2.287Z" transform="translate(-252.894 -275.746)"/>
    </g>
  </g>
</svg>
