<svg xmlns="http://www.w3.org/2000/svg" xmlns:xlink="http://www.w3.org/1999/xlink" width="110.299" height="92.794" viewBox="0 0 110.299 92.794">
  <defs>
    <style>
      .cls-1 {
        clip-path: url(#clip-path);
      }

      .cls-2 {
        fill: none;
        stroke: #000;
        stroke-linecap: round;
        stroke-linejoin: round;
        stroke-miterlimit: 10;
        stroke-width: 2px;
      }
    </style>
    <clipPath id="clip-path">
      <path id="path1077" d="M0-682.665H56.282v56.282H0Z" transform="translate(0 682.665)"/>
    </clipPath>
  </defs>
  <g id="Group_190" data-name="Group 190" transform="translate(-720.345 -2162.822)">
    <g id="g1071" transform="translate(774.362 2881.999)">
      <g id="g1073" transform="translate(0 -682.665)">
        <g id="g1075" class="cls-1">
          <g id="g1081" transform="translate(3.375 16.563)">
            <path id="path1083" class="cls-2" d="M-249.208-219.9l1.118,1.223a26.38,26.38,0,0,0,19.472,8.582h8.826a4.763,4.763,0,0,1-4.775,4.763l-11.385-.029a18.176,18.176,0,0,1-12.162-4.71L-269.66-229.6a5.9,5.9,0,0,1,2.391-10.055h0l11.386,12.456" transform="translate(271.6 239.658)"/>
          </g>
          <g id="g1085" transform="translate(7.324 5.392)">
            <path id="path1087" class="cls-2" d="M0-124.33A12.927,12.927,0,0,1,12.807-135.5l.571,2.082a7.462,7.462,0,0,0,9.246,5.2h0a4.064,4.064,0,0,1,4.908,2.444l6.548,16.964a7.973,7.973,0,0,0,5.081,4.745l2.384.738a8.96,8.96,0,0,1,6.312,8.559" transform="translate(0 135.501)"/>
          </g>
          <g id="g1089" transform="translate(11.7 8.521)">
            <path id="path1091" class="cls-2" d="M-24.931-165.42a9.026,9.026,0,0,0,2.944-6.679,9.05,9.05,0,0,0-5.184-8.184" transform="translate(27.171 180.284)"/>
          </g>
          <g id="g1093" transform="translate(33.433 17.77)">
            <path id="path1095" class="cls-2" d="M-27.226,0l-2.446,1.112" transform="translate(29.672)"/>
          </g>
          <g id="g1097" transform="translate(35.442 23.29)">
            <path id="path1099" class="cls-2" d="M-27.322,0l-2.455,1.116" transform="translate(29.777)"/>
          </g>
          <g id="g1101" transform="translate(38.15 28.957)">
            <path id="path1103" class="cls-2" d="M-19.234,0l-1.728.785" transform="translate(20.963)"/>
          </g>
          <g id="g1105" transform="translate(31.063 34.625)">
            <path id="path1107" class="cls-2" d="M-132.721,0a48.708,48.708,0,0,1-11.925,6.617" transform="translate(144.646)"/>
          </g>
          <g id="g1109" transform="translate(26.271 12.676)">
            <path id="path1111" class="cls-2" d="M-119.693-281.1-129.7-298.371a5.531,5.531,0,0,1,2.93-7.983" transform="translate(130.448 306.354)"/>
          </g>
          <g id="g1113" transform="translate(16.672 50.861)">
            <path id="path1115" class="cls-2" d="M-248.745,0H-271.1" transform="translate(271.095)"/>
          </g>
          <g id="g1117" transform="translate(3.364 50.861)">
            <path id="path1119" class="cls-2" d="M-85.707,0h-7.7" transform="translate(93.408)"/>
          </g>
          <g id="g1121" transform="translate(1.099 44.415)">
            <path id="path1123" class="cls-2" d="M-33.575,0h-3.017" transform="translate(36.592)"/>
          </g>
          <g id="g1125" transform="translate(9.319 44.415)">
            <path id="path1127" class="cls-2" d="M-78.155,0h-7.022" transform="translate(85.177)"/>
          </g>
          <g id="g1129" transform="translate(4.116 37.968)">
            <path id="path1131" class="cls-2" d="M-149.18,0h-13.4" transform="translate(162.584)"/>
          </g>
          <g id="g1133" transform="translate(22.43 32.67)">
            <path id="path1135" class="cls-2" d="M0,0H0"/>
          </g>
        </g>
      </g>
    </g>
    <g id="Page-1" transform="translate(720.345 2162.824)">
      <g id="_023---Garden-Path" data-name="023---Garden-Path" transform="translate(0 -0.002)">
        <path id="Shape" d="M63.692,28.692a59.263,59.263,0,0,1-6.131-1.078,10.775,10.775,0,0,0,1.7-6.142c0-4.105-3.47-14.159-5.732-18.684a3.233,3.233,0,0,0-5.776,0c-2.263,4.526-5.732,14.579-5.732,18.684a13.523,13.523,0,0,0,.3,2.834c-.873-.119-1.735-.226-2.6-.312a7.209,7.209,0,0,0,.14-1.444,7.543,7.543,0,0,0-15.085,0,7.058,7.058,0,0,0,.14,1.444c-.884.086-1.746.194-2.586.312a13.221,13.221,0,0,0,.291-2.834c0-4.095-3.47-14.148-5.732-18.684a3.233,3.233,0,0,0-5.786,0,71.861,71.861,0,0,0-3.362,8.5A3.47,3.47,0,0,0,6.53,12.68C3.955,17.906,0,29.6,0,34.155c0,6.088,3.114,9.482,6.842,10.6a8.448,8.448,0,0,1-1.271,4.127,1.079,1.079,0,0,0,1.789,1.207,10.527,10.527,0,0,0,1.616-4.913H10.42a10.527,10.527,0,0,0,1.616,4.946,1.088,1.088,0,0,0,1.789-1.239,8.448,8.448,0,0,1-1.271-4.127c3.728-1.078,6.842-4.515,6.842-10.6a21.981,21.981,0,0,0-.625-4.386A7.974,7.974,0,0,0,21.55,26.6a62.669,62.669,0,0,1,7.273-.733C24,28.671,21.55,31.537,21.55,34.4c0,3.944,4.924,6.465,9.277,8.739,1.778.927,4.461,2.306,4.655,2.877a1.261,1.261,0,0,1-.474.388,33.92,33.92,0,0,1-6.594,2.4C21.27,50.965,11.465,53.939,5.6,62.257A2.159,2.159,0,0,0,7.37,65.651H32.584a3.233,3.233,0,0,0,2.155-.819A49.674,49.674,0,0,1,45.719,58c8-3.825,11.788-7.435,11.583-11.152-.291-5.668-9.795-9.03-16.723-11.486-.916-.323-1.756-.614-2.489-.894-1.53-.571-2.4-1.336-2.6-2.274-.3-1.476.905-3.7,3.319-6.131,1.422.129,2.845.3,4.31.539a8,8,0,0,0,4.558,4.062,7.834,7.834,0,0,1-1.164,4.213,1.079,1.079,0,0,0,1.789,1.207,9.7,9.7,0,0,0,1.519-4.913,7.8,7.8,0,0,0,1.638,0,9.7,9.7,0,0,0,1.519,4.957,1.091,1.091,0,0,0,1.789-1.25,7.834,7.834,0,0,1-1.164-4.213,8.071,8.071,0,0,0,2.241-1.207,61.925,61.925,0,0,0,7.607,1.368h.119a1.079,1.079,0,0,0,.119-2.155ZM9.7,43.023c-4.579,0-7.543-3.48-7.543-8.868,0-4.2,3.868-15.592,6.3-20.473a1.379,1.379,0,0,1,2.478,0c2.435,4.881,6.3,16.271,6.3,20.473C17.24,39.543,14.277,43.023,9.7,43.023ZM12.866,12.68A3.491,3.491,0,0,0,10.215,10.7a65.858,65.858,0,0,1,2.823-6.939,1.078,1.078,0,0,1,1.929,0c2.123,4.256,5.506,14.1,5.506,17.714a7.812,7.812,0,0,1-2.263,6.013A92.15,92.15,0,0,0,12.866,12.68Zm14.072,9.87a5.388,5.388,0,1,1,10.775,0,4.946,4.946,0,0,1-.172,1.261c-1.325-.086-2.694-.151-4.095-.172H32.326c-1.789,0-3.523.065-5.215.183A4.881,4.881,0,0,1,26.938,22.551ZM33.4,32.636c.356,1.7,1.692,3.006,3.954,3.858l2.521.905c5.635,1.993,15.085,5.334,15.3,9.568.1,1.843-1.627,4.913-10.366,9.094A51.657,51.657,0,0,0,33.3,63.216a1.078,1.078,0,0,1-.711.28H7.359C12.8,55.781,22.186,52.947,29.093,50.879a34.836,34.836,0,0,0,7.069-2.618,2.586,2.586,0,0,0,1.519-2.241c-.054-1.81-2.468-3.06-5.808-4.784-3.674-1.875-8.168-4.2-8.168-6.831s3.62-5.668,9.935-8.62c.819,0,1.616,0,2.414.065-1.724,2.09-3.146,4.5-2.651,6.788ZM44.178,21.473c0-3.373,3.146-12.995,5.506-17.714a1.078,1.078,0,0,1,1.918,0c2.36,4.72,5.506,14.342,5.506,17.714a7.963,7.963,0,0,1-2.155,5.937l-.1.1a5.8,5.8,0,0,1-2.694,1.347,6.842,6.842,0,0,1-1.519.162C46.657,29.016,44.178,26.128,44.178,21.473Z" transform="translate(0 -0.998)"/>
        <path id="Shape-2" data-name="Shape" d="M47.31,23.31c-.593,0-2.155,0-2.155-3.233a1.078,1.078,0,0,0-2.155,0c0,3.427,1.573,5.388,4.31,5.388a1.078,1.078,0,1,0,0-2.155Z" transform="translate(3.333 0.397)"/>
        <path id="Shape-3" data-name="Shape" d="M9.388,36.405c-2.155,0-3.233-1.53-3.233-4.558a1.078,1.078,0,0,0-2.155,0c0,4.2,2.015,6.713,5.388,6.713a1.078,1.078,0,1,0,0-2.155Z" transform="translate(0.31 1.31)"/>
        <ellipse id="Oval" cx="1.5" cy="1" rx="1.5" ry="1" transform="translate(28.656 58)"/>
        <ellipse id="Oval-2" data-name="Oval" cx="1.5" cy="1" rx="1.5" ry="1" transform="translate(28.656 52)"/>
        <circle id="Oval-3" data-name="Oval" cx="1" cy="1" r="1" transform="translate(49.656 43)"/>
        <circle id="Oval-4" data-name="Oval" cx="1" cy="1" r="1" transform="translate(44.656 41)"/>
        <circle id="Oval-5" data-name="Oval" cx="1" cy="1" r="1" transform="translate(25.656 32)"/>
        <circle id="Oval-6" data-name="Oval" cx="1" cy="1" r="1" transform="translate(45.656 44)"/>
        <path id="Shape-4" data-name="Shape" d="M31.155,11.233V9.078a1.078,1.078,0,1,0-2.155,0v2.155a1.078,1.078,0,1,0,2.155,0Z" transform="translate(2.248 -0.455)"/>
        <path id="Shape-5" data-name="Shape" d="M25.155,13.629a1.078,1.078,0,0,0,.937-1.616l-1.078-1.864a1.081,1.081,0,1,0-1.875,1.078l1.078,1.864a1.078,1.078,0,0,0,.937.539Z" transform="translate(1.783 -0.331)"/>
        <path id="Shape-6" data-name="Shape" d="M35.078,13.629a1.078,1.078,0,0,0,.937-.539l1.078-1.864a1.081,1.081,0,0,0-1.875-1.078L34.14,12.013a1.078,1.078,0,0,0,.937,1.616Z" transform="translate(2.635 -0.331)"/>
      </g>
    </g>
  </g>
</svg>
